<?xml version="1.0" standalone="no"?>
<!DOCTYPE svg PUBLIC "-//W3C//DTD SVG 20010904//EN"
 "http://www.w3.org/TR/2001/REC-SVG-20010904/DTD/svg10.dtd">
<svg version="1.0" xmlns="http://www.w3.org/2000/svg"
 width="512.000000pt" height="512.000000pt" viewBox="0 0 512.000000 512.000000"
 preserveAspectRatio="xMidYMid meet">
<metadata>
Created by potrace 1.14, written by Peter Selinger 2001-2017
</metadata>
<g transform="translate(0.000000,512.000000) scale(0.100000,-0.100000)"
fill="#000000" stroke="none">
<path d="M3558 4925 c-2 -2 -40 -6 -85 -9 -46 -4 -91 -9 -100 -10 -10 -2 -39
-6 -64 -10 -80 -12 -101 -16 -219 -46 -402 -102 -830 -295 -1215 -548 -59 -39
-318 -224 -331 -236 -6 -6 -43 -36 -82 -66 -94 -72 -436 -406 -551 -538 -162
-186 -404 -516 -461 -628 -8 -16 -20 -36 -26 -44 -27 -34 -176 -341 -218 -449
-79 -205 -145 -452 -161 -604 -4 -32 -8 -68 -11 -80 -8 -44 -4 -294 6 -372 39
-282 151 -515 337 -703 103 -104 140 -133 248 -195 113 -65 290 -133 395 -152
14 -2 50 -9 80 -15 176 -34 562 -31 700 5 8 2 35 7 60 10 25 3 52 8 60 10 8 2
31 7 50 10 30 5 55 11 130 29 124 31 341 104 447 152 76 34 107 47 113 48 14
3 249 126 340 179 241 138 563 369 764 547 90 80 410 400 456 456 25 31 52 63
60 72 160 175 393 525 518 777 76 152 181 419 198 500 1 6 11 46 22 90 90 355
89 685 -4 963 -32 98 -103 238 -160 319 -50 70 -198 224 -259 270 -164 123
-388 212 -630 248 -89 14 -397 28 -407 20z m277 -540 c82 -8 215 -40 278 -67
67 -28 177 -98 229 -146 80 -74 151 -205 183 -337 20 -81 28 -312 14 -395 -5
-30 -11 -73 -14 -95 -10 -69 -63 -258 -99 -352 -159 -416 -438 -824 -811
-1183 -89 -85 -124 -117 -172 -157 -21 -17 -52 -44 -68 -60 -17 -15 -55 -48
-84 -73 -30 -25 -59 -50 -65 -56 -26 -25 -248 -185 -326 -236 -253 -163 -548
-301 -826 -387 -111 -34 -290 -76 -369 -87 -27 -3 -52 -8 -55 -9 -14 -8 -157
-18 -253 -17 -412 3 -692 170 -792 472 -33 101 -43 174 -43 310 1 183 32 326
130 589 126 340 324 665 603 991 115 134 401 420 420 420 8 0 15 6 15 13 0 23
296 242 500 369 463 288 956 471 1335 495 50 3 91 6 92 7 4 3 121 -3 178 -9z"/>
<path d="M2868 3693 c-18 -16 -42 -36 -53 -46 -11 -10 -70 -61 -132 -114
l-111 -95 21 -25 c12 -14 27 -31 32 -37 56 -61 224 -263 225 -271 2 -5 -60
-63 -136 -127 l-139 -117 -25 27 c-14 15 -80 90 -146 168 l-121 141 -83 -76
c-45 -42 -116 -107 -156 -146 l-73 -70 92 -106 c51 -58 116 -133 144 -166 l53
-60 -101 -84 c-56 -46 -120 -101 -143 -121 l-41 -38 -30 33 c-16 18 -52 59
-80 91 -27 33 -55 64 -60 70 -6 6 -36 41 -66 78 l-56 66 -84 -76 c-46 -43
-116 -108 -156 -147 l-73 -70 130 -164 c72 -90 130 -166 129 -170 0 -3 -63
-58 -140 -121 -76 -62 -138 -118 -137 -122 5 -15 273 -327 281 -327 5 -1 14 5
21 12 15 14 193 178 239 219 l30 28 19 -23 c11 -12 27 -31 36 -42 121 -145
229 -265 237 -265 6 0 17 8 26 18 14 16 167 158 247 229 l36 32 -60 77 c-32
43 -89 116 -126 163 -38 46 -68 90 -68 96 0 15 241 237 255 236 3 -1 33 -33
67 -73 35 -40 67 -78 73 -84 5 -6 30 -35 55 -64 25 -29 56 -66 70 -81 l25 -29
41 38 c22 20 96 83 162 140 67 57 122 108 122 113 0 6 -44 59 -99 117 -54 59
-117 127 -139 152 l-41 45 33 30 c77 68 211 192 232 212 l22 22 84 -97 c45
-53 94 -110 108 -126 63 -74 93 -106 101 -106 4 0 19 10 32 23 14 12 73 67
133 122 59 55 116 108 127 118 18 18 15 21 -85 129 -181 195 -193 211 -169
220 5 2 55 46 112 98 56 52 115 107 132 121 l29 26 -88 104 c-49 57 -98 115
-109 128 -11 14 -31 37 -45 52 l-25 28 -150 -115 c-82 -63 -153 -117 -156
-119 -4 -3 -64 70 -135 160 -71 91 -132 165 -136 165 -3 0 -21 -12 -40 -27z"/>
</g>
</svg>
